<svg viewBox="0 0 640 400" data-background-color="#00000000" preserveAspectRatio="xMidYMid meet" height="400" width="640" xmlns="http://www.w3.org/2000/svg" xmlns:xlink="http://www.w3.org/1999/xlink"><rect width="640" height="400" x="0" y="0" opacity="1" fill="#00000000" data-fill-palette-color="background" id="background"></rect><g id="tight-bounds" transform="matrix(1,0,0,1,122.24000000000001,94.05004078458668)"><svg viewBox="0 0 395.52 211.89991843082663" height="211.89991843082663" width="395.52"><g><svg viewBox="0 0 395.52 211.89991843082663" height="211.89991843082663" width="395.52"><g transform="matrix(1,0,0,1,0,157.6639869936445)"><svg viewBox="0 0 395.52 54.23593143718214" height="54.23593143718214" width="395.52"><g id="textblocktransform"><svg viewBox="0 0 395.52 54.23593143718214" height="54.23593143718214" width="395.52" id="textblock"><g><svg viewBox="0 0 395.52 54.23593143718214" height="54.23593143718214" width="395.52"><g transform="matrix(1,0,0,1,0,0)"><svg width="395.52" viewBox="2.700000047683716 -35.70000076293945 265.42999267578125 36.400001525878906" height="54.23593143718214" data-palette-color="#f36527"><path d="M2.7 0L2.7-35 8.8-35 8.8 0 2.7 0ZM19.6 0L9.05-18.5 19.6-35 26.8-35 15.95-18.5 26.8 0 19.6 0ZM29.6 0L29.6-35 49.25-35 49.25-29.4 35.7-29.4 35.7-21.15 46.15-21.15 46.15-15.55 35.7-15.55 35.7-5.6 49.7-5.6 49.7 0 29.6 0ZM54.45 0L54.45-35 60.7-35 72.3-13.1 72.3-35 78.4-35 78.4 0 73.05 0 60.55-23.3 60.55 0 54.45 0ZM84.99 0L84.99-35 96.29-35Q100.59-35 103.94-32.9 107.29-30.8 109.19-26.85 111.09-22.9 111.09-17.5L111.09-17.5Q111.09-12.1 109.19-8.15 107.29-4.2 103.94-2.1 100.59 0 96.29 0L96.29 0 84.99 0ZM91.09-5.6L96.29-5.6Q100.29-5.6 102.34-8.75 104.39-11.9 104.39-17.5L104.39-17.5Q104.39-23.1 102.34-26.25 100.29-29.4 96.29-29.4L96.29-29.4 91.09-29.4 91.09-5.6ZM115.64 0L115.64-35 121.74-35 121.74 0 115.64 0ZM137.09 0L137.09-35 143.19-35 143.19 0 137.09 0ZM153.99 0L143.44-18.5 153.99-35 161.19-35 150.34-18.5 161.19 0 153.99 0ZM163.73 0L163.73-35 173.93-35Q179.43-35 182.53-32.38 185.63-29.75 185.63-24.2L185.63-24.2Q185.63-20.95 184.33-18.5 183.03-16.05 180.68-14.7L180.68-14.7 187.38 0 180.53 0 174.83-13 174.28-13 169.83-13 169.83 0 163.73 0ZM169.83-18.3L173.38-18.3Q176.28-18.3 177.81-19.65 179.33-21 179.33-24L179.33-24Q179.33-27 177.81-28.35 176.28-29.7 173.38-29.7L173.38-29.7 169.83-29.7 169.83-18.3ZM208.28 0L205.88-8.35 195.93-8.35 193.53 0 187.43 0 198.08-35 203.68-35 214.38 0 208.28 0ZM197.53-13.95L204.28-13.95 200.88-25.8 197.53-13.95ZM226.38 0.7Q223.68 0.7 221 0.13 218.33-0.45 216.33-1.45L216.33-1.45 217.08-8.25Q222.18-5.45 226.78-5.45L226.78-5.45Q229.18-5.45 230.53-6.43 231.88-7.4 231.88-9.2L231.88-9.2Q231.88-10.55 231.2-11.53 230.53-12.5 229.05-13.43 227.58-14.35 224.83-15.6L224.83-15.6Q220.38-17.6 218.35-19.85 216.33-22.1 216.33-25.75L216.33-25.75Q216.33-28.65 217.73-30.9 219.13-33.15 221.78-34.43 224.43-35.7 228.08-35.7L228.08-35.7Q232.63-35.7 237.18-33.65L237.18-33.65 236.53-27.05Q233.98-28.3 231.85-28.93 229.73-29.55 227.58-29.55L227.58-29.55Q225.28-29.55 224.05-28.65 222.83-27.75 222.83-26L222.83-26Q222.83-24.65 223.63-23.73 224.43-22.8 225.6-22.13 226.78-21.45 229.88-20L229.88-20Q234.33-17.85 236.35-15.5 238.38-13.15 238.38-9.45L238.38-9.45Q238.38-4.8 235.18-2.05 231.98 0.7 226.38 0.7L226.38 0.7ZM242.93 0L242.93-35 249.03-35 249.03-21.15 262.03-21.15 262.03-35 268.13-35 268.13 0 262.03 0 262.03-15.15 249.03-15.15 249.03 0 242.93 0Z" opacity="1" transform="matrix(1,0,0,1,0,0)" fill="#f36527" class="undefined-text-0" data-fill-palette-color="primary" id="text-0"></path></svg></g></svg></g></svg></g></svg></g><g transform="matrix(1,0,0,1,131.73180825314193,0)"><svg viewBox="0 0 132.05638349371608 132.05638349371608" height="132.05638349371608" width="132.05638349371608"><g><svg></svg></g><g id="icon-0"><svg viewBox="0 0 132.05638349371608 132.05638349371608" height="132.05638349371608" width="132.05638349371608"><g><path d="M0 66.028c0-36.466 29.562-66.028 66.028-66.028 36.466 0 66.028 29.562 66.028 66.028 0 36.466-29.562 66.028-66.028 66.028-36.466 0-66.028-29.562-66.028-66.028zM66.028 127.165c33.765 0 61.137-27.372 61.137-61.137 0-33.765-27.372-61.137-61.137-61.137-33.765 0-61.137 27.372-61.137 61.137 0 33.765 27.372 61.137 61.137 61.137z" data-fill-palette-color="tertiary" fill="#f36527" stroke="transparent"></path></g><g transform="matrix(1,0,0,1,27.817798712182523,38.44978861684562)"><svg viewBox="0 0 76.42078606935104 55.15680626002484" height="55.15680626002484" width="76.42078606935104"><g><svg xmlns="http://www.w3.org/2000/svg" xmlns:xlink="http://www.w3.org/1999/xlink" version="1.1" x="0" y="0" viewBox="0 0 70.80000305175781 51.099998474121094" style="enable-background:new 0 0 70.8 51.1;" xml:space="preserve" width="76.42078606935104" height="55.15680626002484" class="icon-s-0" data-fill-palette-color="accent" id="s-0"><g fill="#f36527" data-fill-palette-color="accent"><path d="M53.9 14.6c0.6 0.9 1.1 1.8 1.6 2.9s0.7 2.2 0.9 3.3L70.8 27 60 0 53.9 14.6z" fill="#f36527" data-fill-palette-color="accent"></path><path d="M54.5 17.9c-0.3-0.8-0.6-1.4-1-2-1.7-2.8-4.6-4.7-8.6-5.7-4.8-1.2-9.8-0.7-15 1.4-5.3 2-9.3 5.2-12 9.4-2.5 4.3-3 8.3-1.5 12.2 1.5 3.8 4.7 6.4 9.5 7.6 4.9 1.2 9.9 0.8 15.1-1.3 5.3-2.1 9.3-5.3 11.9-9.5 2.1-3.5 2.9-6.8 2.2-10C55 19.3 54.8 18.6 54.5 17.9zM46.5 14.3c0.601 0.4 0.7 0.7 0.3 0.5-4.8-1.2-9.8-0.7-15.1 1.3-5.3 2.1-9.3 5.3-11.9 9.6-0.2 0.3-0.2 0 0-0.7 0.1-0.9 0.3-1.7 0.8-2.5 2.2-4 5.5-6.9 10.1-8.8 4.6-1.8 9.1-2 13.4-0.6C45 13.4 45.8 13.8 46.5 14.3z" fill="#f36527" data-fill-palette-color="accent"></path><path d="M14.601 30.2L0 24.1l10.9 27 6.2-14.6c-0.7-0.8-1.3-1.8-1.7-2.9C14.9 32.5 14.7 31.4 14.601 30.2z" fill="#f36527" data-fill-palette-color="accent"></path></g></svg></g></svg></g></svg></g></svg></g><g></g></svg></g><defs></defs></svg><rect width="395.52" height="211.89991843082663" fill="none" stroke="none" visibility="hidden"></rect></g></svg>